# xmcd
#
# Track frame offsets: 
#        150
#        13012
#        27112
#        41887
#        54645
#        65694
#        78758
#        92392
#        104768
#        119859
#        134154
#        148355
#        161390
#        174359
#        187855
#        202258
#        216657
#        230360
#        244924
#        257256
#        269860
#        285233
#        296311
#        307852
#        314475
#        327611
#        339532
#
# Disc length: 4648 seconds
#
# Revision: 0
# Processed by: cddbd v1.5.2PL0 Copyright (c) Steve Scherf et al.
# Submitted via: ExactAudioCopy v1.0b4
#
DISCID=a512261b
DTITLE=Various Artist - Country. Old time folk songs and music CD2
DYEAR=2014
DGENRE=
TTITLE0=The Bently Boys - Country. Old time folk songs and music
TTITLE1=Gid Tanner and His Skillet Lickers - Cripple creek
TTITLE2=Coley Jones - Drunkard's special
TTITLE3=The Pickard Family - I'll meet her when the sun goes down
TTITLE4=Lewis Mcdaniel and Walter Smith - I went to see my sweetheart
TTITLE5=The Georgia Pot Lickers - Chicken don't roost too high
TTITLE6=David McCarn - Poor man, rich man
TTITLE7=Hendley, Whitter and Small - A pretty gal's love
TTITLE8=Darby and Tarlton - Lowe bonnie
TTITLE9=Fiddlin' John Carson and His Virginia Reelers - Little more suga
TTITLE9=r in the coffee
TTITLE10=Freeny's Barn Dance Band - Croquet habits
TTITLE11=Three 'Baccer Tags - Ain't gonna do it no more
TTITLE12=Woodie Brothers - Chased old Satan through the door
TTITLE13=Buster Carter and Preston Young - A lazy farmer boy
TTITLE14=Three Stripped Gears - Alabama blues
TTITLE15=Fort Worth Doughboys - Nancy Jane
TTITLE16=Jolly Two - Come on down
TTITLE17=Clarence Ashley and Gwen Foster - Sadie Ray
TTITLE18=Walker's Corbin Ramblers - Ruffles and bustles
TTITLE19=The Carter Family - The East Virginia blues
TTITLE20=Cliff Carlisle - That nasty swing
TTITLE21=Wade Mainer and Zeke Morris - Short life and it's trouble
TTITLE22=Uncle Dave Macon - All in down and out blues
TTITLE23=W.H. Stepp - The old hen
TTITLE24=The Dixon Brothers - Down with the old canoe
TTITLE25=A'nt Idy Harper and The Coon Creek Girls - Poor Naomi Wise
TTITLE26=Arthur Smith and Don Reno - Ida Reed
EXTD=
EXTT0=
EXTT1=
EXTT2=
EXTT3=
EXTT4=
EXTT5=
EXTT6=
EXTT7=
EXTT8=
EXTT9=
EXTT10=
EXTT11=
EXTT12=
EXTT13=
EXTT14=
EXTT15=
EXTT16=
EXTT17=
EXTT18=
EXTT19=
EXTT20=
EXTT21=
EXTT22=
EXTT23=
EXTT24=
EXTT25=
EXTT26=
PLAYORDER=
